inDegrees=no
num_controls=7
num_derivatives=13
num_iterations=162
num_multipliers=7
num_parameters=0
num_slacks=7
num_states=26
objective=4.357337
objective_accelerations=0.228804
objective_balance=0.023983
objective_effort=0.321338
objective_height=3.733712
objective_ligament=0.049500
solver_duration=1490.942285
status=Solve_Succeeded
success=true
DataType=double
version=3
OpenSimVersion=4.4-2022-07-23-0e9fedc
endheader
time	/jointset/ground_pelvis/pelvis_tilt/value	/jointset/ground_pelvis/pelvis_tx/value	/jointset/ground_pelvis/pelvis_ty/value	/jointset/hip_l/hip_flexion_l/value	/jointset/hip_l/hip_adduction_l/value	/jointset/hip_l/hip_rotation_l/value	/jointset/back/lumbar_extension/value	/jointset/patellofemoral_l/patellar_flexion_l/value	/jointset/knee_l/knee_flexion_l/value	/jointset/knee_l/knee_adduction_l/value	/jointset/knee_l/knee_rotation_l/value	/jointset/ankle_l/ankle_angle_l/value	/jointset/subtalar_l/subtalar_angle_l/value	/jointset/ground_pelvis/pelvis_tilt/speed	/jointset/ground_pelvis/pelvis_tx/speed	/jointset/ground_pelvis/pelvis_ty/speed	/jointset/hip_l/hip_flexion_l/speed	/jointset/hip_l/hip_adduction_l/speed	/jointset/hip_l/hip_rotation_l/speed	/jointset/back/lumbar_extension/speed	/jointset/patellofemoral_l/patellar_flexion_l/speed	/jointset/knee_l/knee_flexion_l/speed	/jointset/knee_l/knee_adduction_l/speed	/jointset/knee_l/knee_rotation_l/speed	/jointset/ankle_l/ankle_angle_l/speed	/jointset/subtalar_l/subtalar_angle_l/speed	/forceset/tau_hip_flexion_l	/forceset/tau_hip_adduction_l	/forceset/tau_hip_rotation_l	/forceset/tau_knee_flexion_l	/forceset/tau_ankle_angle_l	/forceset/tau_subtalar_angle_l	/forceset/tau_lumbar_extension	lambda_cid13_p0	lambda_cid13_p1	lambda_cid13_p2	lambda_cid13_p3	lambda_cid13_p4	lambda_cid13_p5	lambda_cid14_p0	/jointset/ground_pelvis/pelvis_tilt/accel	/jointset/ground_pelvis/pelvis_tx/accel	/jointset/ground_pelvis/pelvis_ty/accel	/jointset/hip_l/hip_flexion_l/accel	/jointset/hip_l/hip_adduction_l/accel	/jointset/hip_l/hip_rotation_l/accel	/jointset/back/lumbar_extension/accel	/jointset/patellofemoral_l/patellar_flexion_l/accel	/jointset/knee_l/knee_flexion_l/accel	/jointset/knee_l/knee_adduction_l/accel	/jointset/knee_l/knee_rotation_l/accel	/jointset/ankle_l/ankle_angle_l/accel	/jointset/subtalar_l/subtalar_angle_l/accel	gamma_cid13_p0	gamma_cid13_p1	gamma_cid13_p2	gamma_cid13_p3	gamma_cid13_p4	gamma_cid13_p5	gamma_cid14_p0
1	0.1276704868710135	0.02024662658092169	0.7975661953285148	0.7209888162259406	-0.343928798245745	-0.0130323760117733	-0.9599310033736259	1.135678991492419	1.135678991492184	-0.09998097460984591	-0.1745320936799583	0.3692664069294449	0.08611837697382527	0.1190105208046052	0.03225337488035637	0.05494603850680386	-0.3047776421066209	0.0002500779915695617	-0.06766981369914971	-0.004532766708953828	-0.1690810507235928	-0.1690810507236002	-0.0008524058065623192	-2.031548546712292e-05	0.006611292862067892	0.005018374963625696	-0.2024800631382672	0.04783303051420593	-0.004765056155202373	-0.3576675528413137	-0.05635136444853367	0.038716523419364	0.3325887707674834	-65.89177819691648	-6.661911339644885	2.189213374423496	16.94151705958462	-766.47085288429	-80.53050611342363	-2.396871044821843	-0.08592016688515706	-0.06943789725510009	0.8921809171577884	-2.440127555094676	0.1284681879613036	-1.303398107025765	0.8903235782519167	-3.980767165206489	-3.980767165206517	-0.1546796535839366	-0.006873892350507688	-1.738068002594522	-0.6437613210858769	-9.058792978958248e-09	6.344838901897966e-09	3.577815745627327e-08	7.278799679255908e-09	-2.332491614296009e-08	3.264506189036046e-08	-7.29368608929326e-09
1.01	0.1288558712760965	0.02056575840598356	0.7981600779847517	0.7178198877045237	-0.3439194903033866	-0.0137745426883874	-0.9599310766279449	1.133789659362974	1.133789659362831	-0.09999619967282601	-0.1745322216241255	0.3692458750736737	0.08613707777094744	0.1180543943368891	0.03157949645318172	0.06382189414453936	-0.3289890943158414	0.001616239213175523	-0.08075798495459449	0.00455291390224867	-0.2087786025182679	-0.2087786025182582	-0.00219350558288292	-5.672059110853583e-06	-0.01071652470765124	-0.00127033389902967	-0.2017433836716368	0.04791094440766648	-0.004805050568167882	-0.3572660631216101	-0.05647853559774631	0.03875372787281439	0.3322381227731242	-65.9083632756189	-6.691312871326215	2.212345423234539	16.82730881117557	-766.2173089788131	-80.55816147821558	-2.441910248249454	-0.1022544690551566	-0.06538470461748593	0.8839924604732379	-2.408810195456664	0.1413953597970909	-1.310705238357159	0.9229100095511905	-3.963231333246192	-3.963231333243623	-0.1239640159653839	0.005584261679541648	-1.729968921291387	-0.6202489144491122	-1.326660972399676e-08	-2.160474864722565e-09	5.08376274684725e-08	1.077829739759736e-08	-2.813736148474854e-08	2.51785869366323e-08	-9.756885955319192e-09
1.02	0.1300313353000308	0.02087834706893937	0.798842460112044	0.71440941343269	-0.3438963796947017	-0.01464742679826639	-0.9598392491346773	1.131503555286258	1.131503555286202	-0.1000248635088476	-0.1745322129737238	0.3690520989847794	0.086093126830325	0.1170264445755692	0.03094474245914413	0.07264593271782752	-0.3530867921899093	0.003010611256248	-0.09381330035216519	0.01384738279332149	-0.2484354401788717	-0.2484354401788446	-0.003540160411572504	7.003429277421207e-06	-0.02803755376260318	-0.007511972585436198	-0.2010067042049956	0.04798885830114385	-0.004845044981299345	-0.3568645734019041	-0.05660570674695312	0.03879093232629593	0.3318874747787739	-65.93871847125941	-6.717690642959834	2.234295061511776	16.76680398939241	-766.1436042761846	-80.58247113826366	-2.496948805394659	-0.1002848256058939	-0.06161301062771311	0.881817504268319	-2.41737668806414	0.1341103522546116	-1.296826935450944	0.9320812342258109	-3.97262433839224	-3.972624338392196	-0.1557906640577306	-0.007267479944103118	-1.73671029964112	-0.6343472858361205	-1.687231213526267e-08	-1.216427374178579e-08	6.527383612374657e-08	1.294255301813389e-08	-3.220515566676551e-08	1.583702507078971e-08	-1.214137107601365e-08
1.03	0.13119585865548	0.02118497640339518	0.7996127832529109	0.7107586596020413	-0.3438592083089008	-0.01565063199040777	-0.9596522894465741	1.128821175852849	1.128821175852906	-0.1000670878545598	-0.1745320783563907	0.368685419460845	0.08598711373396245	0.1158360879984005	0.03040709451129134	0.0814061537334362	-0.3770327985997669	0.004425852974532874	-0.1068190659941305	0.02369414589536101	-0.2880252379324113	-0.2880252379324041	-0.004909644802920612	1.854453698770906e-05	-0.04526995067207264	-0.0136711319326277	-0.200846793987213	0.04809211680450776	-0.004893637586519331	-0.3561657713387242	-0.05658456964187211	0.03889463252431093	0.3322968514156041	-65.91819638172133	-6.796610428185816	2.28147518652243	16.3743698437296	-766.2967693399424	-80.64218462899353	-2.562263342842295	-0.1347325453633188	-0.04594214336094641	0.8712358642029751	-2.378537836348754	0.1455519508887354	-1.301164608515679	1.033412508262283	-3.949873288839711	-3.949873288842745	-0.1282747237022598	0.005173768480717494	-1.712246770301898	-0.6037787009937473	-2.047187052271456e-08	-2.218336328324129e-08	7.97036849692561e-08	1.509318371930505e-08	-3.626535136756031e-08	6.476329665027567e-09	-1.452505298502105e-08
1.04	0.1323472141508362	0.02148700896707254	0.8004703308967324	0.7068693806635128	-0.3438078203320593	-0.01678363748495831	-0.9593623743954348	1.125743355282909	1.125743355283074	-0.1001231565236074	-0.1745318665555112	0.3681472674910758	0.08582009335576207	0.1143928725576018	0.03002538830345314	0.09009083330876824	-0.400791813765722	0.005853929463743034	-0.1197733608339432	0.03443845540017242	-0.3275236674861474	-0.3275236674861601	-0.00630902507542379	2.244013878060849e-05	-0.0623320429296249	-0.01971342895314393	-0.2006868837694229	0.04819537530788628	-0.004942230191897948	-0.3554669692755423	-0.05656343253678556	0.0389983327223534	0.3327062280524408	-65.91150643652111	-6.872551263215334	2.327543638257903	16.03387277561028	-766.631600903168	-80.69927313722614	-2.638178458148524	-0.1508565983318754	-0.03042466262481642	0.8667092162129876	-2.379978439283639	0.1366773064396578	-1.286532775020446	1.111590514780134	-3.954350698431537	-3.954350698431471	-0.1617698402887492	-0.008796581127617295	-1.702649369257709	-0.6109748205010989	-2.257229976212457e-08	-3.335446580467161e-08	9.184482430886676e-08	1.47432726524113e-08	-3.943725963831364e-08	-6.740872257982235e-09	-1.62450187748518e-08
1.05	0.1334829939878896	0.0217859514789226	0.801414303350737	0.7027434617736188	-0.3437420858704935	-0.01804585302990918	-0.9589609568458787	1.122271090009934	1.122271090010257	-0.1001934166531604	-0.1745316565548979	0.367439296161833	0.08559322846421552	0.1127314556668505	0.02978387399164167	0.09868638542702921	-0.4243567677706617	0.007297013792146636	-0.1326576071173776	0.04595403081269839	-0.3669048786611452	-0.3669048786611602	-0.007746115956838299	1.927119624331413e-05	-0.07923806334709568	-0.02563766282943812	-0.2001353876646253	0.0482163222349301	-0.005000731249930536	-0.3545475874314911	-0.05633206088360036	0.03910131305965357	0.3326166987291978	-65.80361889631816	-6.970201664928124	2.381988984250123	15.68792367525114	-766.3981291423737	-80.75970094381657	-2.725062953812962	-0.1785309385283863	-0.01789796803240319	0.8533788518076657	-2.339476129040079	0.1487214168599568	-1.287567374731679	1.187887499631475	-3.92632645392256	-3.926326453922981	-0.1351554449874198	0.003898185651588519	-1.680957743796164	-0.5798696315118878	-2.462588121565829e-08	-4.456156873172613e-08	1.039144414764181e-07	1.431521965526553e-08	-4.258140892687817e-08	-2.0078590009656e-08	-1.794424343595828e-08
1.06	0.1346012103152169	0.02208310221713937	0.802443711454359	0.6983829488940869	-0.3436618010814768	-0.01943655040164024	-0.9584411142531679	1.118405748599838	1.118405748600311	-0.1002781430381272	-0.1745314831964024	0.3665629887552548	0.08530777684184304	0.1108801706128412	0.02966703357679495	0.107177963232188	-0.4477106116932498	0.008763994953313188	-0.1454697261898742	0.05812346403093234	-0.4061388949116893	-0.4061388949117072	-0.009202276155036274	1.511171243896711e-05	-0.09599925839674329	-0.03143077511846577	-0.1995838915598207	0.04823726916198744	-0.005059232308112951	-0.3536282055874376	-0.05610068923040973	0.03920429339697934	0.3325271694059613	-65.70943453609581	-7.064978304740301	2.435433798231575	15.39142568653657	-766.345407911688	-80.81871097256631	-2.82331554932171	-0.1888302309834468	-0.005489883231885954	0.8459143535925435	-2.337756422813297	0.1414566729922334	-1.27210733283288	1.242362075921679	-3.924911713540758	-3.924911713540844	-0.1655837036454497	-0.00899468938107143	-1.673684295693103	-0.5847505030478261	-2.675173811078629e-08	-5.56699998215719e-08	1.135275828504307e-07	1.427035920257704e-08	-4.557013498185637e-08	-3.248977039795107e-08	-1.94305483863456e-08
1.07	0.1356999859943336	0.0223797132650835	0.8035574768152527	0.6937899810125019	-0.3435667377772279	-0.02095491443817348	-0.95779634942957	1.114148869438946	1.114148869438991	-0.1003776145175698	-0.1745313558982423	0.3655198118387616	0.08496505570034138	0.1088442917651323	0.02967656356124492	0.1155537542389625	-0.4708431760478661	0.01025325282900989	-0.1581869825813424	0.07093610779603886	-0.445205027394427	-0.4452050273944249	-0.01069644515255129	1.071364041820032e-05	-0.1126094137191889	-0.03708811283653357	-0.1988977319330361	0.0482226854893165	-0.005125241105295665	-0.3524523060329203	-0.0557211335242709	0.03931759886525061	0.3322584855264644	-65.54319782792277	-7.182719263887939	2.49923860720788	15.02675583692108	-765.9361029532679	-80.87795332507864	-2.933380112914993	-0.2155685928187478	0.007385420433705398	0.8301985158032519	-2.295039983967606	0.1533361507119485	-1.269141446786913	1.316706592818445	-3.892673332907011	-3.892673332903977	-0.1420092616324763	0.003913472728094788	-1.650678767294635	-0.5524279751805186	-2.888143944429697e-08	-6.677318240943847e-08	1.23010060618404e-07	1.424588133204055e-08	-4.85505938435587e-08	-4.485166688393876e-08	-2.090552782020532e-08
